<svg xmlns="http://www.w3.org/2000/svg" xml:space="preserve" style="shape-rendering:geometricPrecision;text-rendering:geometricPrecision;image-rendering:optimizeQuality;fill-rule:evenodd;clip-rule:evenodd" viewBox="0 0 354 236"><defs><linearGradient id="a" x1="41.92" x2="336.09" y1="108.5" y2="108.49" gradientUnits="userSpaceOnUse"><stop offset="0" style="stop-opacity:1;stop-color:#1c1d6a"/><stop offset="1" style="stop-opacity:1;stop-color:#042897"/></linearGradient></defs><path d="M-.83.89h354v236h-354z" style="fill:none"/><path d="m125.63 172.66 17.34-107.21h27.72l-17.34 107.21zM50.12 65.45H5.52l-.45 2.17c10.87 2.78 20.6 6.79 29.13 11.78l24.71 93.15h29.31l43.58-107.1h-29.32l-27.15 73.11-2.96-14.83-9.7-49.27c-1.6-6.84-6.5-8.78-12.55-9.01m240.57 69.23c2.28-6.15 11.07-29.99 11.07-29.99-.12.23 2.28-6.28 3.65-10.27l1.93 9.24s5.25 25.66 6.39 31.02zm34.22-69.23h-21.44c-6.62 0-11.64 1.94-14.49 8.9l-41.18 98.31h29.09s4.79-13.23 5.82-16.08h35.58c.8 3.77 3.31 16.08 3.31 16.08h25.67zm-71.06 2.63c-5.48-2.17-14.15-4.57-24.87-4.57-27.38 0-46.65 14.6-46.77 35.47-.23 15.4 13.8 23.96 24.3 29.09 10.72 5.25 14.37 8.67 14.37 13.34-.11 7.19-8.67 10.5-16.65 10.5-11.07 0-17-1.71-26.01-5.71l-3.65-1.71-3.88 24.07c6.5 2.96 18.48 5.59 30.91 5.7 29.09 0 48.03-14.37 48.25-36.61.12-12.21-7.3-21.56-23.27-29.2-9.69-4.9-15.62-8.21-15.62-13.23.11-4.56 5.02-9.24 15.97-9.24 9.01-.22 15.62 1.94 20.64 4.11l2.51 1.14z" style="fill:url(#a)"/></svg>