<svg xmlns="http://www.w3.org/2000/svg" viewBox="0 0 300 200"><title>12-mato-grosso-full</title><path d="M0 0h300v200H0z" style="fill:#213572"/><path d="M148.43 179 24.15 102.55a3 3 0 0 1 0-5.1L148.43 21a3 3 0 0 1 3.14 0l124.28 76.45a3 3 0 0 1 0 5.1L151.57 179a3 3 0 0 1-3.14 0" style="fill:#f0f0f0"/><path d="M200 100a50 50 0 1 1-50-50 50 50 0 0 1 50 50" style="fill:#009b43"/><path d="m152.3 56.59 8.5 26.14a2.48 2.48 0 0 0 2.37 1.72h27.27A2.49 2.49 0 0 1 191.9 89l-22.06 16a2.51 2.51 0 0 0-.91 2.79l8.43 25.93a2.49 2.49 0 0 1-3.84 2.79l-22.06-16a2.51 2.51 0 0 0-2.93 0l-22.06 16a2.49 2.49 0 0 1-3.83-2.79l8.42-25.93a2.49 2.49 0 0 0-.9-2.79L108.1 89a2.49 2.49 0 0 1 1.46-4.51h27.27a2.48 2.48 0 0 0 2.37-1.72l8.5-26.14a2.42 2.42 0 0 1 4.6 0" style="fill:#ffcf44"/><circle cx="150" cy="100.09" r="45" style="fill:none"/></svg>