<svg xmlns="http://www.w3.org/2000/svg" viewBox="0 0 300 200"><title>15-para-full</title><path d="M300 0H64.9L300 156.73zM0 200h235.1L0 43.27z" style="fill:#d9251d"/><path d="M64.9 0H0v43.27L235.1 200H300v-43.27z" style="fill:#f0f0f0"/><path d="m151.53 71.06 5.67 17.43a1.67 1.67 0 0 0 1.58 1.15H177a1.66 1.66 0 0 1 1 3l-14.7 10.69a1.66 1.66 0 0 0-.61 1.86l5.62 17.29a1.66 1.66 0 0 1-2.56 1.85L151 113.65a1.68 1.68 0 0 0-2 0l-14.7 10.68a1.66 1.66 0 0 1-2.56-1.86l5.62-17.28a1.67 1.67 0 0 0-.61-1.86l-14.69-10.69a1.66 1.66 0 0 1 1-3h18.18a1.67 1.67 0 0 0 1.58-1.15l5.67-17.43a1.61 1.61 0 0 1 3.06 0" style="fill:#213572"/><circle cx="150" cy="100.06" r="30" style="fill:none"/></svg>